<svg width="20" height="20" viewBox="0 0 20 20" fill="none" xmlns="http://www.w3.org/2000/svg">
<path fill-rule="evenodd" clip-rule="evenodd" d="M19.8075 4.48653C18.9129 5.13051 17.6955 5.2554 16.6541 4.70669C15.1883 3.93435 14.6261 2.11996 15.3984 0.654124C15.4772 0.504618 15.5668 0.364512 15.6658 0.234264C15.1369 0.0817305 14.578 0 14 0H6C2.68629 0 0 2.68629 0 6V14C0 17.3137 2.68629 20 6 20H14C17.3137 20 20 17.3137 20 14V6C20 5.4772 19.9331 4.97001 19.8075 4.48653Z" fill="#767A8C"/>
<path d="M20 2C20 3.10457 19.1046 4 18 4C16.8954 4 16 3.10457 16 2C16 0.895431 16.8954 0 18 0C19.1046 0 20 0.895431 20 2Z" fill="#42434D"/>
<path d="M5 13L7.85714 8.45455L11.4286 12.0909L15 8" stroke="#42434D"/>
</svg>
