<svg width="19" height="20" viewBox="0 0 19 20" fill="none" xmlns="http://www.w3.org/2000/svg">
<path fill-rule="evenodd" clip-rule="evenodd" d="M3.51297 3.49796C2.63657 3.20583 1.67413 3.55194 1.18451 4.33533L0.362334 5.65081C-0.13126 6.44056 -0.0144212 7.46649 0.644116 8.12502L1.79389 9.2748C1.93808 9.41899 2.01909 9.61456 2.01909 9.81849C2.01909 9.93786 1.9913 10.0556 1.93792 10.1623L1.66424 10.7097C1.5681 10.902 1.4416 11.0775 1.2896 11.2295L0.585836 11.9333C-0.0455828 12.5647 -0.181925 13.5382 0.251735 14.3188L1.16359 15.9601C1.6526 16.8403 2.71976 17.2197 3.65469 16.8458L3.91864 16.7402C4.30899 16.584 4.73862 16.5549 5.14649 16.6568L5.24695 16.682C6.01943 16.8751 6.60376 17.508 6.73467 18.2935L6.74056 18.3288C6.90129 19.2932 7.73567 20 8.71335 20H10.5105C11.4035 20 12.1882 19.408 12.4335 18.5494L12.8753 17.0031C12.9669 16.6825 13.1889 16.4151 13.4871 16.266C13.822 16.0985 14.2162 16.0985 14.5511 16.266L15.2302 16.6056C16.2182 17.0996 17.4195 16.6991 17.9135 15.7111L18.796 13.9461C19.2178 13.1026 18.993 12.0791 18.2566 11.49L17.4385 10.8355C17.1734 10.6235 17.0191 10.3024 17.0191 9.96289C17.0191 9.66651 17.1368 9.38226 17.3464 9.17269L18.3941 8.12502C19.0526 7.46649 19.1694 6.44056 18.6758 5.65081L17.8537 4.33533C17.3641 3.55194 16.4275 3.27033 15.5837 3.64639C15.149 3.84011 14.7381 4 14.5191 4C14.1222 4 13.3052 3.68495 12.8185 3.30493C12.5954 3.1308 12.495 2.85568 12.4485 2.57657L12.2976 1.6712C12.1369 0.706826 11.3025 0 10.3248 0H8.46061C7.59975 0 6.88152 0.564461 6.74852 1.41499C6.69303 1.76985 6.64084 2.12766 6.6003 2.41329C6.54595 2.79618 6.38954 3.16103 6.10774 3.42588C5.77346 3.74005 5.31104 4.09732 5.01909 4L3.51297 3.49796ZM9.68206 13C11.4289 13 12.845 11.6569 12.845 10C12.845 8.34315 11.4289 7 9.68206 7C7.9352 7 6.51909 8.34315 6.51909 10C6.51909 11.6569 7.9352 13 9.68206 13Z" fill="#42434D"/>
</svg>
