<svg width="22" height="18" viewBox="0 0 22 18" fill="none" xmlns="http://www.w3.org/2000/svg">
<path fill-rule="evenodd" clip-rule="evenodd" d="M5.43557 9.32H1.06211L1.06211 14.0006C1.06211 15.6574 2.40525 17 4.06211 17H17.9603C19.5297 17 20.8354 15.7904 20.9131 14.2229C21.022 12.0239 21.0861 9.32 20.7427 9.32H16.3692V10.5714C16.3692 12.2283 15.0261 13.5714 13.3692 13.5714H8.43557C6.77871 13.5714 5.43557 12.2283 5.43557 10.5714V9.32Z" fill="#BDBEC4"/>
<path d="M5.43557 9.32H5.93557V8.82H5.43557V9.32ZM1.06211 9.32V8.82H0.562105V9.32H1.06211ZM1.06211 14.0006H1.56211H1.06211ZM20.9131 14.2229L20.4137 14.1982L20.9131 14.2229ZM16.3692 9.32V8.82H15.8692V9.32H16.3692ZM18.451 2.759L17.9929 2.95933L18.451 2.759ZM20.7427 9.32V9.82H20.8717L20.9846 9.75758L20.7427 9.32ZM3.32413 2.61596L2.87454 2.39718V2.39718L3.32413 2.61596ZM5.43557 8.82H1.06211V9.82H5.43557V8.82ZM0.562105 9.32L0.562106 14.0006H1.56211L1.56211 9.32H0.562105ZM0.562106 14.0006C0.562106 15.9337 2.12924 17.5 4.06211 17.5V16.5C2.68126 16.5 1.56211 15.3812 1.56211 14.0006H0.562106ZM4.06211 17.5H17.9603V16.5H4.06211V17.5ZM17.9603 17.5C19.7886 17.5 21.3212 16.0889 21.4124 14.2477L20.4137 14.1982C20.3496 15.4919 19.2707 16.5 17.9603 16.5V17.5ZM21.4124 14.2477C21.467 13.1458 21.511 11.9072 21.4975 10.9398C21.4908 10.4595 21.4698 10.0272 21.4246 9.70704C21.4027 9.55181 21.371 9.3908 21.3181 9.25677C21.2922 9.19114 21.2487 9.09905 21.1735 9.01578C21.0928 8.92647 20.9478 8.82 20.7427 8.82V9.82C20.5805 9.82 20.4752 9.73465 20.4313 9.68603C20.3929 9.64344 20.3831 9.61158 20.388 9.62418C20.3969 9.64662 20.4157 9.71402 20.4344 9.84665C20.4704 10.1022 20.491 10.4832 20.4976 10.9538C20.5106 11.8882 20.468 13.101 20.4137 14.1982L21.4124 14.2477ZM20.7427 8.82H16.3692V9.82H20.7427V8.82ZM15.8692 9.32V10.5714H16.8692V9.32H15.8692ZM15.8692 10.5714C15.8692 11.9522 14.7499 13.0714 13.3692 13.0714V14.0714C15.3022 14.0714 16.8692 12.5044 16.8692 10.5714H15.8692ZM13.3692 13.0714H8.43557V14.0714H13.3692V13.0714ZM8.43557 13.0714C7.05486 13.0714 5.93557 11.9522 5.93557 10.5714H4.93557C4.93557 12.5044 6.50257 14.0714 8.43557 14.0714V13.0714ZM5.93557 10.5714V9.32H4.93557V10.5714H5.93557ZM17.9929 2.95933C18.5113 4.14484 19.1808 5.71936 19.6696 7.02195C19.9149 7.67572 20.1092 8.24662 20.2172 8.66079C20.2722 8.8716 20.2982 9.01738 20.3038 9.10362C20.3067 9.14886 20.3018 9.14841 20.3081 9.1217C20.3127 9.10193 20.3474 8.96722 20.5008 8.88242L20.9846 9.75758C21.1885 9.64486 21.2575 9.45303 21.2818 9.34952C21.3076 9.23906 21.3075 9.12826 21.3017 9.03912C21.2899 8.85663 21.2446 8.63761 21.1848 8.40839C21.0633 7.9425 20.8541 7.33237 20.6058 6.67065C20.1074 5.34225 19.4291 3.74792 18.9091 2.55867L17.9929 2.95933ZM1.52352 9.12739C1.51413 9.1049 1.49457 9.02792 1.50134 8.8652C1.50779 8.71016 1.53635 8.51329 1.5887 8.2767C1.69335 7.80373 1.88182 7.22127 2.121 6.58624C2.59835 5.31888 3.25594 3.89878 3.77372 2.83475L2.87454 2.39718C2.35233 3.47032 1.67887 4.92301 1.18518 6.23376C0.938841 6.88778 0.731788 7.52071 0.612317 8.06066C0.552604 8.33054 0.511949 8.58952 0.502208 8.82362C0.492787 9.05004 0.510059 9.29549 0.600693 9.51261L1.52352 9.12739ZM15.7397 0.5H5.94728V1.5H15.7397V0.5ZM16.3692 9.82H20.7427V8.82H16.3692V9.82ZM18.9091 2.55867C18.3572 1.29662 17.1085 0.5 15.7397 0.5V1.5C16.7198 1.5 17.6036 2.06923 17.9929 2.95933L18.9091 2.55867ZM3.77372 2.83475C4.17377 2.01266 5.01755 1.5 5.94728 1.5V0.5C4.6505 0.5 3.44873 1.21722 2.87454 2.39718L3.77372 2.83475Z" fill="#BDBEC4"/>
</svg>
