<svg width="20" height="20" viewBox="0 0 20 20" fill="none" xmlns="http://www.w3.org/2000/svg">
<path fill-rule="evenodd" clip-rule="evenodd" d="M10 17C13.0152 17 15.5852 15.0936 16.5703 12.4204C17.1235 12.7867 17.7868 13 18.5 13C18.8826 13 19.2508 12.9386 19.5953 12.8252C18.3763 16.9723 14.5417 20 10 20C8.76947 20 7.59086 19.7777 6.50211 19.3712C7.35437 18.7758 7.9292 17.8106 7.9939 16.7083C8.6294 16.8981 9.3028 17 10 17ZM19.9936 9.63931C19.9883 9.488 19.9795 9.33754 19.9675 9.18801C19.8239 8.50932 19.2214 8 18.5 8C17.6716 8 17 8.67157 17 9.5C17 10.3284 17.6716 11 18.5 11C19.2815 11 19.9233 10.4024 19.9936 9.63931ZM10 0C14.1275 0 17.671 2.50067 19.198 6.06961C18.9725 6.02396 18.739 6 18.5 6C17.639 6 16.8506 6.31089 16.241 6.82653C15.0839 4.55547 12.7236 3 10 3C8.8916 3 7.84336 3.25762 6.91191 3.71624C6.67094 2.66292 5.95475 1.79072 5.00096 1.33727C6.47161 0.486761 8.17896 0 10 0ZM0.628819 6.50211C0.222258 7.59086 0 8.76947 0 10C0 11.821 0.486761 13.5284 1.33727 14.999C1.79072 14.0453 2.66292 13.3291 3.71624 13.0881C3.25762 12.1566 3 11.1084 3 10C3 9.3028 3.10193 8.6294 3.2917 7.9939C2.18941 7.9292 1.22422 7.35438 0.628819 6.50211Z" fill="#767A8C"/>
<circle cx="4.5" cy="16.5" r="1.5" fill="#767A8C"/>
<circle cx="3.5" cy="4.5" r="1.5" fill="#767A8C"/>
<circle cx="18.5" cy="9.5" r="1.5" fill="#767A8C"/>
</svg>
